<?xml version="1.0" encoding="utf-8"?>
<!DOCTYPE svg PUBLIC "-//W3C//DTD SVG 1.0//EN" "http://www.w3.org/TR/2001/REC-SVG-20010904/DTD/svg10.dtd">
<svg version="1.0" xmlns="http://www.w3.org/2000/svg" width="1254px" height="1254px" viewBox="0 0 1254 1254" preserveAspectRatio="xMidYMid meet">
   <defs>
      <linearGradient id="lg0" gradientUnits="userSpaceOnUse" x1="58.007812%" y1="62.98828%" x2="84.57031%" y2="62.98828%">
         <stop offset="0%" style="stop-color:rgb(2,122,243);"></stop>
         <stop offset="100%" style="stop-color:rgb(7,191,251);"></stop>
      </linearGradient>
   </defs>
 <g fill="#ebebeb">
  <path d="M0 627 l0 -627 627 0 627 0 0 627 0 627 -627 0 -627 0 0 -627z m500.13 315.70 c2.57 -2.45 13.35 -20.21 26.57 -43.84 12.25 -21.92 26.94 -48 32.70 -58.17 5.63 -10.04 15.55 -27.68 21.92 -39.19 6.49 -11.39 12.49 -21.92 13.35 -23.27 0.98 -1.35 1.71 -3.67 1.71 -5.27 0 -1.59 -7.35 -13.59 -17.39 -28.17 -9.55 -13.96 -23.63 -34.53 -31.23 -45.80 -7.72 -11.27 -15.19 -21.31 -16.65 -22.41 -2.33 -1.59 -15.55 -1.84 -107.15 -1.84 l-104.58 0 -3.92 4.04 c-2.20 2.08 -10.78 16.65 -19.10 32.08 -8.33 15.55 -24.37 45.31 -35.88 66.13 -11.39 20.94 -24.12 44.33 -28.41 52.05 -4.16 7.72 -13.84 25.72 -21.43 39.80 -7.59 14.21 -15.31 28.53 -17.27 31.96 l-3.55 6.25 10.90 17.63 c8.33 13.59 11.76 18.12 14.94 19.72 3.92 2.08 13.23 2.20 142.30 2.20 l138.01 0 4.16 -3.92z m535.89 1.71 c3.18 -1.59 6.74 -6 14.94 -19.23 5.88 -9.31 10.78 -17.51 10.78 -18.12 0 -1.10 -15.19 -30.62 -19.59 -38.21 -1.22 -1.96 -7.84 -14.45 -14.70 -27.55 -6.86 -13.10 -17.88 -33.80 -24.49 -45.92 -6.61 -12.12 -23.15 -42.74 -36.74 -67.97 -13.59 -25.23 -26.21 -47.39 -27.92 -49.23 l-3.18 -3.43 -104.46 0 -104.58 0 -5.14 5.27 c-2.82 2.82 -12.12 15.31 -20.70 27.80 -8.57 12.49 -19.23 27.92 -23.63 34.29 -15.55 22.29 -20.21 29.27 -20.21 30.62 0 1.22 11.88 23.02 45.31 83.27 6.49 11.76 16.65 30.25 22.66 41.02 25.47 46.54 26.08 47.27 31.84 48.74 1.35 0.37 63.92 0.61 138.99 0.73 127.73 0.12 136.79 0 140.83 -2.08z m-486.41 -315.58 c2.57 -2.33 7.10 -7.59 10.16 -11.63 2.94 -4.16 18.12 -24.37 33.55 -45.07 l28.17 -37.60 7.23 0 7.23 0 13.72 19.59 c40.29 57.80 51.92 73.72 55.72 76.29 l4.04 2.69 97.60 0 97.72 0 3.80 -3.55 c2.08 -1.96 3.80 -4.41 3.80 -5.51 0 -1.10 -5.63 -12.49 -12.37 -25.47 -22.04 -41.88 -45.80 -86.70 -58.90 -111.19 -7.10 -13.10 -17.14 -31.84 -22.41 -41.64 -5.27 -9.80 -12.37 -23.02 -15.92 -29.39 -3.55 -6.37 -20.08 -36.74 -36.74 -67.35 -38.82 -71.52 -38.94 -71.64 -43.23 -73.35 -2.57 -1.10 -27.06 -1.35 -95.03 -1.10 l-91.60 0.37 -4.53 5.14 c-3.80 4.29 -39.19 65.88 -67.60 117.32 -4.41 8.08 -18.12 32.94 -30.49 55.11 -41.27 74.46 -90.99 165.32 -92.21 168.51 -1.47 3.92 1.22 9.06 5.63 10.90 1.47 0.61 46.66 1.10 100.30 1.10 l97.72 0.12 4.65 -4.29z"/>
 </g>
 <g fill="#03b1fd">
  <path fill="url(#lg0)" d="M912.70 912.58 l-22.41 -0.24 0 -4.29 c0 -3.43 0.49 -4.29 2.33 -4.29 1.96 0 2.57 -1.22 3.18 -6.86 0.49 -3.67 1.71 -7.47 2.57 -8.45 0.98 -0.98 1.71 -4.29 1.71 -7.84 0 -3.43 0.61 -6.25 1.22 -6.25 0.73 0 1.22 -0.49 1.22 -1.22 0 -0.61 -1.22 -1.22 -2.57 -1.22 -2.45 0 -2.57 -0.49 -1.84 -6.37 0.49 -4.04 -0.12 -11.63 -1.35 -19.84 -1.71 -10.41 -1.84 -13.47 -0.61 -13.96 1.84 -0.61 1.84 -7.84 0 -31.84 -1.10 -14.08 -1.10 -18.98 0 -19.59 0.98 -0.73 0.98 -3.31 0.12 -9.92 -0.73 -5.02 -0.98 -10.29 -0.49 -11.63 1.35 -4.29 2.08 -53.39 0.73 -53.39 -1.35 0 -0.98 -30.62 0.37 -32.82 0.61 -0.98 7.10 -1.47 21.43 -1.47 l20.45 0 3.18 3.31 c1.71 1.96 14.33 24.12 27.92 49.35 13.59 25.23 30.13 55.84 36.74 67.97 6.61 12.12 17.39 32.21 23.88 44.70 6.61 12.49 15.31 29.02 19.47 36.74 16.41 30.49 17.27 32.57 15.92 36.37 l-1.10 3.43 -64.90 0 c-35.76 0 -74.95 -0.12 -87.19 -0.37z"/>
 </g>
 <g fill="#0393fb">
  <path fill="url(#lg0)" d="M859.31 912.33 c-2.57 -0.49 -6.25 -2.33 -8.08 -4.16 -1.96 -1.84 -8.82 -12.86 -15.31 -24.49 l-11.76 -21.19 0 -11.14 c0 -6.86 0.49 -11.39 1.35 -12 0.98 -0.49 0.86 -1.10 -0.24 -1.71 -0.86 -0.61 -1.96 -3.92 -2.45 -7.59 -1.10 -8.08 -1.22 -56.82 -0.12 -70.29 0.49 -5.39 0.37 -12 -0.24 -14.70 -1.35 -5.76 -0.98 -25.23 0.37 -26.21 0.61 -0.37 0.49 -6.37 0 -13.47 -0.98 -11.76 -0.73 -19.84 0.86 -30.25 l0.61 -4.04 51.68 0.24 c29.02 0.12 45.80 0.61 38.21 0.98 -7.35 0.37 -12.74 0.86 -11.88 0.98 2.20 0.37 1.84 2.69 -0.61 2.69 -1.10 0 -1.71 0.37 -1.22 0.73 0.37 0.37 0.12 2.08 -0.49 3.80 -0.61 1.71 -0.73 3.67 -0.24 4.41 1.47 2.20 1.22 15.55 -0.24 15.55 -0.61 0 -0.49 0.49 0.49 1.10 1.22 0.86 1.59 4.78 1.47 17.39 -0.12 9.06 -0.37 18.25 -0.49 20.57 -0.24 2.33 0.37 4.78 1.35 5.76 0.86 0.98 1.10 1.71 0.49 1.71 -0.98 0 -1.71 6.25 -1.59 13.84 0 1.35 -0.61 1.84 -1.47 1.22 -1.10 -0.61 -1.10 -0.37 0 0.98 0.73 0.98 1.47 5.02 1.47 9.06 0 4.29 0.49 7.47 1.35 7.72 0.73 0.24 0.12 1.47 -1.35 2.82 -1.47 1.22 -2.08 2.33 -1.47 2.33 0.73 0 1.59 1.35 1.84 3.06 0.49 2.20 0.12 3.06 -1.35 3.06 -1.59 0 -1.59 0.24 -0.24 1.10 1.10 0.73 1.35 2.20 0.86 4.16 -0.49 1.96 -0.12 3.80 0.86 4.78 1.47 1.35 1.47 1.96 -0.12 3.43 -1.22 1.10 -1.35 1.84 -0.49 2.20 0.73 0.24 0.98 1.22 0.61 2.20 -0.37 0.98 0.12 2.69 0.98 3.80 1.35 1.59 1.35 2.08 0.24 2.45 -0.86 0.37 -1.59 1.47 -1.59 2.57 0 1.71 0.24 1.84 1.22 0.24 0.61 -0.98 1.47 -1.47 1.84 -0.98 0.37 0.37 -0.12 1.59 -1.22 2.69 -1.22 1.22 -1.84 3.67 -1.59 6.86 0.12 3.31 0.61 4.53 1.47 3.67 0.61 -0.61 1.84 -1.22 2.57 -1.22 0.61 0 -0.61 1.71 -2.94 3.67 -3.55 3.18 -3.80 3.67 -1.59 3.67 1.35 0 2.69 0.86 3.18 1.84 0.73 2.08 -0.61 2.45 -2.45 0.61 -0.86 -0.86 -1.35 -0.73 -1.35 0.61 0 0.98 0.86 1.84 1.96 1.96 1.71 0 1.59 0.12 -0.12 0.86 -1.59 0.61 -1.84 1.35 -0.98 2.69 0.73 1.10 1.22 1.22 1.22 0.37 0 -0.86 0.86 -1.22 1.96 -0.73 1.59 0.61 1.47 0.98 -0.61 3.06 -2.82 2.57 -3.55 4.53 -0.86 2.33 1.35 -1.10 1.96 -1.10 2.69 0 0.49 0.73 0 1.96 -1.22 2.57 -2.45 1.35 -2.57 3.43 -0.12 3.43 0.98 0 1.84 1.10 1.84 2.45 0 1.35 0.61 2.45 1.35 2.45 0.98 0 0.86 0.61 -0.12 1.84 -0.86 1.10 -2.33 1.71 -3.31 1.35 -1.10 -0.49 -1.35 -0.12 -0.86 0.61 0.49 0.73 0 1.84 -0.86 2.45 -1.35 0.86 -1.35 1.10 0.37 1.10 1.10 0 2.33 -0.73 2.57 -1.47 0.49 -1.22 0.98 -1.10 1.96 0.24 0.86 1.22 0.73 2.08 -0.12 2.57 -0.98 0.61 -1.10 1.47 -0.24 2.57 2.08 2.57 1.35 6.49 -0.98 6.37 -2.33 -0.24 -2.94 1.35 -1.10 2.45 0.61 0.37 1.35 1.84 1.71 3.31 0.49 1.84 0.24 2.33 -1.10 1.84 -2.08 -0.86 -2.20 0.98 -0.24 4.16 1.84 2.94 0.49 4.53 -2.08 2.45 -2.08 -1.71 -2.33 -0.98 -1.84 5.27 0.12 1.84 -0.49 3.31 -1.22 3.31 -1.22 0 -1.10 0.49 0 1.84 0.86 0.98 2.33 1.84 3.18 1.84 0.98 0 1.71 0.49 1.71 1.10 0 0.73 -2.57 1.47 -5.76 1.71 -5.27 0.37 -5.14 0.49 1.84 0.61 8.57 0.24 10.53 2.69 2.20 2.69 -3.06 0 -5.88 0.61 -6.25 1.22 -0.86 1.35 -30.49 1.47 -37.72 0z"/>
 </g>
 <g fill="#0381f9">
  <path fill="url(#lg0)" d="M795.87 812.28 c-15.06 -26.82 -37.96 -67.72 -51.07 -90.99 -12.98 -23.27 -24.61 -42.98 -25.72 -43.84 -1.96 -1.47 -1.84 -1.84 0.98 -3.92 2.94 -2.33 5.63 -2.33 74.70 -2.20 39.43 0.24 63.56 0.49 53.76 0.61 -14.08 0.37 -18.37 0.86 -19.47 2.20 -0.86 0.98 -1.47 5.02 -1.47 8.94 0 3.80 -0.61 7.35 -1.35 7.72 -0.61 0.49 -0.86 1.71 -0.49 2.94 0.49 1.10 1.35 1.71 1.96 1.22 1.22 -0.73 0.86 5.76 -0.37 7.84 -0.49 0.61 -0.12 1.84 0.73 2.82 2.33 2.45 2.45 4.65 0.24 4.65 -1.71 0 -1.71 0.12 0 1.96 2.20 2.20 2.45 3.67 0.73 4.78 -0.61 0.37 -1.22 1.84 -1.22 3.18 0 1.22 -0.61 2.33 -1.47 2.33 -1.10 0 -1.10 0.37 0 1.47 1.71 1.71 1.96 5.14 0.24 4.04 -0.61 -0.37 -1.22 0.12 -1.22 1.10 0 1.10 0.61 1.96 1.22 1.96 0.73 0 1.22 1.22 1.22 2.82 0 1.96 -0.37 2.20 -1.10 0.98 -0.61 -0.98 -1.35 -1.10 -1.84 -0.37 -0.37 0.61 0.37 2.45 1.71 3.92 2.82 3.31 2.94 3.92 1.10 5.76 -0.98 0.98 -0.86 1.84 0.49 2.94 1.59 1.47 1.59 2.20 0.12 5.02 -1.22 2.45 -1.35 4.16 -0.49 6.49 1.59 4.04 1.59 4.65 -0.12 3.55 -0.86 -0.49 -0.86 0.12 0.12 1.96 1.22 2.20 0.98 3.06 -0.86 5.14 -1.59 1.84 -1.84 2.69 -0.61 3.06 0.73 0.37 1.47 1.35 1.47 2.20 0 0.86 -0.73 1.96 -1.47 2.20 -1.22 0.49 -1.10 0.98 0.24 1.96 1.47 0.98 1.47 1.59 0.24 2.82 -1.71 1.71 -2.08 11.27 -0.24 10.16 0.73 -0.37 1.22 -0.24 1.22 0.49 0 0.61 -0.73 1.35 -1.47 1.71 -1.22 0.37 -1.22 1.10 0.12 3.43 1.10 1.84 1.22 2.94 0.37 3.31 -0.98 0.24 -0.98 1.22 0 3.31 0.73 1.71 0.86 3.80 0.24 5.14 -1.22 2.94 -1.47 12.61 -0.24 12.61 0.49 0 0.86 0.37 0.86 0.98 -0.49 2.69 0.24 5.14 1.35 4.53 0.73 -0.37 1.22 0.12 1.22 1.10 0 1.10 -0.86 1.96 -1.84 1.96 -1.10 0 -1.47 0.73 -0.98 1.96 0.37 1.10 1.10 1.35 1.47 0.73 0.49 -0.73 1.35 -0.49 2.33 0.49 0.86 0.98 1.10 1.71 0.49 1.71 -0.61 0 -1.10 0.86 -1.10 1.84 0 0.98 0.49 1.84 1.10 1.84 0.49 0 0 1.10 -1.22 2.45 -2.45 2.94 -3.06 7.35 -0.98 7.35 0.73 0 0.61 0.49 -0.37 1.10 -1.47 0.98 -1.59 1.71 -0.37 4.29 0.98 2.20 0.98 3.18 0.12 3.18 -0.73 0 -1.10 0.86 -0.61 1.84 0.49 1.35 -0.12 1.84 -2.20 1.84 -2.57 0 -6.25 -6 -30.25 -48.62z"/>
 </g>
 <g fill="#023698">
  <path d="M746.77 945.77 c-1.84 -1.96 -9.18 -14.21 -16.41 -27.31 -7.23 -13.10 -15.68 -28.53 -18.86 -34.29 -3.06 -5.76 -16.29 -29.64 -29.39 -53.27 -32.21 -58.41 -30.86 -55.72 -30.13 -59.88 0.61 -3.06 5.51 -10.53 21.43 -33.19 2.33 -3.31 11.63 -16.90 20.70 -30 20.70 -30 24.25 -34.53 27.43 -34.04 1.84 0.24 9.06 12 27.92 45.68 14.08 24.98 38.70 68.70 54.74 97.36 l29.27 52.05 -4.78 0.37 c-6 0.49 -8.08 2.57 -9.06 8.45 -0.37 2.57 -1.71 6 -3.06 7.59 -1.22 1.59 -2.20 4.78 -2.20 6.98 0 4.78 -2.20 10.29 -4.16 10.29 -0.86 0 -2.20 2.57 -3.18 5.76 -0.86 3.18 -2.20 6.49 -2.94 7.47 -4.65 5.51 -7.96 8.82 -8.94 8.82 -3.18 0 -7.72 3.31 -7.72 5.76 0 3.92 -1.22 6.49 -3.18 6.49 -0.98 0 -1.71 0.61 -1.71 1.22 0 0.73 -1.10 1.22 -2.45 1.22 -1.35 0 -2.45 0.49 -2.45 1.10 0 0.61 -2.33 1.35 -5.14 1.84 -12.61 1.59 -14.45 2.20 -14.45 4.53 0 3.80 -7.35 3.06 -11.27 -0.98z"/>
 </g>
 <g fill="#023581">
  <path d="M752.52 949.44 c-1.35 -0.37 -3.67 -1.84 -5.27 -3.18 -3.31 -3.06 -10.65 -15.43 -9.67 -16.29 0.73 -0.73 5.76 6.12 5.76 7.96 0 1.47 7.59 7.47 9.55 7.47 0.61 0 0.98 -1.10 0.61 -2.45 -0.49 -2.08 0 -2.45 2.82 -2.45 2.82 0 3.18 -0.24 1.71 -1.22 -1.59 -0.98 -1.47 -1.22 0.37 -1.22 1.10 0 2.08 0.49 2.08 1.22 0 0.61 0.86 0.86 1.84 0.49 0.98 -0.49 1.84 -1.47 1.84 -2.45 0 -0.98 0.86 -1.71 1.96 -1.71 1.10 0 3.06 -1.22 4.29 -2.69 1.84 -1.96 2.33 -2.20 2.33 -0.61 0 0.98 -0.49 2.08 -1.22 2.33 -0.73 0.24 -0.73 1.10 0 2.20 0.98 1.59 1.47 1.35 3.18 -1.10 1.59 -2.20 2.20 -2.45 3.06 -1.22 0.73 1.22 1.10 1.35 1.10 0.24 0 -0.86 0.73 -1.59 1.71 -1.59 2.57 0 3.55 -3.67 0.98 -3.80 -1.22 0 -1.47 -0.37 -0.49 -0.73 0.73 -0.24 1.22 -1.10 0.73 -1.71 -0.37 -0.61 0 -1.10 0.86 -1.10 1.10 0 1.10 -0.37 0 -1.71 -1.10 -1.22 -0.98 -1.84 0.37 -2.33 0.86 -0.37 2.20 -0.12 2.94 0.61 0.73 0.73 1.47 0.73 1.96 -0.12 0.49 -0.73 1.96 -1.35 3.31 -1.35 1.35 0 2.20 -0.49 1.84 -0.98 -0.24 -0.49 -0.12 -1.71 0.61 -2.69 0.73 -1.35 1.10 -1.35 1.10 -0.24 0 1.22 0.37 1.22 1.71 0 0.98 -0.86 1.47 -1.96 1.22 -2.33 -0.12 -0.37 0.61 -1.35 1.96 -2.33 1.22 -0.86 1.96 -2.33 1.59 -3.18 -0.37 -0.98 0.24 -2.57 1.35 -3.67 1.22 -1.10 1.71 -2.94 1.35 -4.29 -0.61 -1.71 -0.12 -2.33 1.59 -2.33 3.06 0 5.27 -5.14 4.41 -10.41 -0.37 -2.94 -0.12 -4.29 0.86 -4.29 0.86 0 1.10 -0.37 0.73 -0.86 -0.49 -0.37 0.12 -1.35 1.22 -2.20 2.20 -1.59 2.82 -3.67 3.18 -10.65 0.12 -3.43 0.49 -4.16 1.71 -3.18 1.10 0.86 1.59 0.86 1.59 -0.12 0 -0.73 0.86 -1.35 1.84 -1.35 2.20 0 2.45 -1.96 0.37 -2.82 -0.86 -0.37 -0.12 -0.73 1.84 -0.73 1.84 -0.12 3.31 0.49 3.31 1.10 0 0.73 1.22 1.71 2.82 2.33 1.96 0.73 5.88 6.49 12.49 18.49 10.41 18.61 15.43 24.37 21.80 24.74 2.20 0.12 25.10 0.24 51.07 0.37 122.46 0.37 150.63 0.73 150.63 1.59 0 0.49 -4.90 8.69 -10.78 18 -8.20 13.23 -11.76 17.63 -14.94 19.23 -4.04 2.08 -13.23 2.20 -144.50 2.08 -77.15 -0.12 -141.32 -0.37 -142.67 -0.73z"/>
  <path d="M186.75 911.35 c-2.20 -5.63 -0.98 -7.96 70.05 -138.01 11.51 -20.82 27.55 -50.58 35.88 -66.13 8.33 -15.43 16.90 -30 19.10 -32.08 l3.92 -4.04 107.77 0 c59.27 0 108.62 0.37 109.72 0.73 3.06 1.22 2.33 5.02 -2.20 12.61 -2.33 3.80 -11.02 18.98 -19.47 33.80 -8.33 14.82 -19.59 34.66 -24.98 44.09 -5.51 9.43 -22.41 39.19 -37.72 66.13 -35.64 62.82 -36.86 64.90 -42.13 72.86 -7.96 11.88 2.33 10.90 -115.60 11.27 -85.48 0.37 -103.85 0.12 -104.34 -1.22z"/>
  <path d="M343.26 635.57 c-4.29 -1.71 -7.96 -8.45 -7.23 -13.35 0.61 -3.67 36.86 -70.66 94.54 -174.63 11.88 -21.55 25.35 -45.80 29.76 -53.88 28.53 -51.56 63.92 -113.03 67.60 -117.32 l4.53 -5.14 95.64 -0.37 c66.25 -0.24 96.38 0.12 98.09 0.98 2.57 1.35 3.31 6 1.35 7.96 -2.69 2.82 -70.66 136.67 -89.52 176.34 -11.14 23.51 -46.78 98.70 -56.94 120.62 -4.90 10.41 -12.61 26.70 -17.02 36.13 -4.90 10.53 -9.43 18.49 -11.76 20.57 l-3.67 3.31 -101.40 -0.12 c-57.07 0 -102.50 -0.49 -103.97 -1.10z"/>
  <path d="M701.70 634.10 c-3.80 -2.57 -15.80 -19.10 -55.72 -76.29 -11.51 -16.41 -14.21 -19.72 -17.02 -19.96 -3.18 -0.37 -3.43 -0.73 -2.69 -4.29 0.73 -3.67 16.78 -37.11 80.33 -167.40 15.68 -31.96 29.27 -60.25 30.25 -62.70 1.35 -3.55 2.57 -4.65 4.65 -4.65 2.45 0 5.63 5.02 23.39 37.72 11.27 20.70 25.47 46.66 31.47 57.80 37.84 69.44 66.74 123.44 107.28 200.59 6.86 13.10 12.74 25.23 13.10 27.19 0.86 4.04 -1.96 9.92 -6.12 12.74 -2.82 1.71 -12.37 1.96 -103.97 1.96 l-100.91 0 -4.04 -2.69z"/>
 </g>
 <g fill="#011947">
  <path d="M211.98 948.09 c-3.18 -1.59 -6.61 -6.12 -14.94 -19.72 -6 -9.67 -10.53 -18.12 -10.16 -18.61 0.37 -0.61 46.54 -1.10 102.50 -1.10 99.07 0 102.01 -0.12 105.81 -2.45 5.63 -3.43 5.76 -3.55 49.96 -81.44 15.31 -26.94 32.21 -56.70 37.72 -66.13 5.39 -9.43 16.65 -29.27 24.98 -44.09 8.45 -14.82 17.14 -30.13 19.47 -33.92 2.45 -3.92 4.04 -7.59 3.55 -8.33 -0.37 -0.61 -0.24 -1.22 0.24 -1.22 2.94 0 7.59 5.63 20.33 24.25 7.59 11.27 21.80 31.96 31.35 46.05 12.49 18.25 17.76 26.82 18.12 30 0.61 4.90 1.22 3.55 -15.80 33.80 -17.27 30.74 -29.88 53.03 -54.74 97.36 -13.23 23.63 -24 41.39 -26.57 43.84 l-4.16 3.92 -141.69 0 c-132.63 0 -142.05 -0.12 -145.97 -2.20z"/>
  <path d="M557.32 615.86 c19.47 -41.64 57.68 -122.71 77.03 -163.36 15.68 -32.94 80.21 -160.55 89.52 -176.96 0.98 -1.71 1.71 -3.18 1.84 -3.43 0.12 -0.12 1.10 0 2.20 0.49 2.08 0.73 7.47 9.55 16.65 26.82 2.82 5.39 3.92 8.33 2.45 6.49 -1.47 -1.96 -3.06 -3.43 -3.67 -3.43 -0.49 0 -1.84 2.08 -2.82 4.65 -0.98 2.45 -14.57 30.74 -30.25 62.70 -59.39 121.85 -79.60 163.73 -79.60 165.08 0 0.86 -1.35 2.08 -2.94 2.69 -1.84 0.61 -14.33 16.29 -32.45 40.66 -48.98 65.76 -52.90 69.68 -37.96 37.60z"/>
 </g>
</svg>